<?xml version="1.0" standalone="no"?><!DOCTYPE svg PUBLIC "-//W3C//DTD SVG 1.1//EN" "http://www.w3.org/Graphics/SVG/1.1/DTD/svg11.dtd" [<!ENTITY nbsp " ">]><svg data-noselect="" 
  viewBox="128.27617084702 51.27816772461 521 437.23488703312" 
  width="521" 
  height="437.23488703312" 
  ref="svg_canvas" 
  preserveAspectRatio="none" 
  version="1.1" xmlns="http://www.w3.org/2000/svg" 
  style="background: #FFFFFF;">
    <defs></defs>
    <g id="shape_JZfIU9uh3q"   ref="shape_JZfIU9uh3q" key="shape_JZfIU9uh3q" transform="translate(303.3282051594142,131.27816772461) rotate(0,92.867812399435,92.867812399435) scale(1,1)" style="cursor:move;display:inline;opacity:1;" filter="">
            <g style="display:inline"><rect fill="rgba(0,0,0,0)" width="190.89592983010158" height="205.73562479887" x="-10" y="-10"></rect><svg version="1.1" id="图层_1" xmlns="http://www.w3.org/2000/svg" xmlns:xlink="http://www.w3.org/1999/xlink" x="0px" y="0px" viewBox="0 0 71.4000015258789 77.5999984741211" style="enable-background:new 0 0 71.2 77.5;" xml:space="preserve" width="170.89592983010158" height="185.73562479887" class="style-removed" preserveAspectRatio="none" data-parent="shape_JZfIU9uh3q">

<g>
	<g>
		<path d="M29.9,58.9l-0.2-0.1l0,0c-0.4-0.2-0.6-0.5-0.6-1L29,47c0-1.7-1.1-3.2-2.7-3.7L16,40c-1.1-0.3-1.1-1.9,0-2.3
			l10.3-3.4c1.6-0.5,2.7-2,2.7-3.7l-0.1-10.8c0-0.7,0.5-1.1,1-1.2L61.9,7.7C55.5,2.9,47.5,0,38.8,0C17.4,0,0,17.4,0,38.8
			s17.4,38.8,38.8,38.8c8.7,0,16.7-2.9,23.2-7.7L29.9,58.9C29.9,58.9,29.9,58.9,29.9,58.9z" fill="#00BBFF"></path>
		<path d="M52,51.5l-10.1-3.2c-1.6-0.5-3.4,0.1-4.3,1.4l-4.6,6.5l32.3,11c2.3-2.1,4.3-4.5,6.1-7.2L52,51.5z" fill="#00BBFF"></path>
		<path d="M37.4,27.8c1,1.4,2.8,1.9,4.4,1.4l4.1-1.4l25.4-10.3c-1.7-2.6-3.7-5-6-7.1L32.7,21.4L37.4,27.8z" fill="#00BBFF"></path>
	</g>
</g>
</svg></g>
        </g><g id="shape_RwMyvYnIc6"   ref="shape_RwMyvYnIc6" key="shape_RwMyvYnIc6" transform="translate(133.26617084702002,106.04946475772996) rotate(0,381.93301735308,264.96359000000007) scale(1,1)" style="cursor:move;display:inline;opacity:1;" filter="">
            <g style="display:inline"><svg xmlns="http://www.w3.org/2000/svg" version="1.1" xmlns:xlink="http://www.w3.org/1999/xlink" width="661.04" height="529.9271800000001" viewBox="0 0 661.04 529.9271800000001" preserveAspectRatio="none" data-parent="shape_RwMyvYnIc6"><rect fill="rgba(0,0,0,0)" width="361" height="75" x="75.01" y="227.46359000000004"></rect><g data-width="360.048" transform="translate(75.486, 0)"><line x1="0" x2="360.048" y1="300.96359000000007" y2="300.96359000000007" stroke="#00bbff" stroke-width="25.65" stroke-opacity="1"></line></g><g data-width="360.048" transform="translate(75.486, 0)"><path d="M10.35-52.51L56.41-52.51L56.41-48.31L19.13-48.31Q18.45-48.31 17.93-47.78Q17.40-47.26 17.40-46.58L17.40-46.58L17.40 1.58Q17.40 2.25 17.93 2.78Q18.45 3.30 19.13 3.30L19.13 3.30L56.41 3.30L54.16 7.50L10.35 7.50Q8.40 7.50 7.05 6.15Q5.70 4.80 5.70 2.85L5.70 2.85L5.70-47.93Q5.70-49.88 7.05-51.19Q8.40-52.51 10.35-52.51L10.35-52.51Z" transform="translate(0 289.46359000000007) " fill="rgb(49, 49, 49)" stroke="rgb(49, 49, 49)" stroke-width="0.125" data-glyph-w="60.008" data-glyph-h="78.53547" data-glyph-ascender="64.43359000000001" data-glyph-descender="-14.101880000000001"></path><path d="M4.35 2.85L4.35-47.86Q4.35-49.81 5.66-51.16Q6.98-52.51 8.93-52.51L8.93-52.51L51.23-52.51Q53.18-52.51 54.49-51.16Q55.81-49.81 55.81-47.86L55.81-47.86L55.81 2.85Q55.81 4.80 54.49 6.15Q53.18 7.50 51.23 7.50L51.23 7.50L8.93 7.50Q6.98 7.50 5.66 6.15Q4.35 4.80 4.35 2.85L4.35 2.85ZM16.05-46.51L16.05 1.50Q16.05 2.25 16.54 2.78Q17.03 3.30 17.70 3.30L17.70 3.30L42.38 3.30Q43.13 3.30 43.62 2.78Q44.11 2.25 44.11 1.50L44.11 1.50L44.11-46.51Q44.11-47.26 43.62-47.78Q43.13-48.31 42.38-48.31L42.38-48.31L17.70-48.31Q17.03-48.31 16.54-47.78Q16.05-47.26 16.05-46.51L16.05-46.51Z" transform="translate(60.008 289.46359000000007) " fill="rgb(49, 49, 49)" stroke="rgb(49, 49, 49)" stroke-width="0.125" data-glyph-w="60.008" data-glyph-h="78.53547" data-glyph-ascender="64.43359000000001" data-glyph-descender="-14.101880000000001"></path><path d="M8.25-52.51L50.41-52.51Q52.28-52.51 53.67-51.19Q55.06-49.88 55.06-48.01L55.06-48.01L55.06-18.23Q55.06-16.35 53.67-15.00Q52.28-13.65 50.41-13.65L50.41-13.65L15.30-13.65L15.30 7.50L3.60 7.50L3.60-48.01Q3.60-49.88 4.95-51.19Q6.30-52.51 8.25-52.51L8.25-52.51ZM43.21-19.58L43.21-46.58Q43.21-47.33 42.72-47.82Q42.23-48.31 41.48-48.31L41.48-48.31L17.03-48.31Q16.28-48.31 15.79-47.82Q15.30-47.33 15.30-46.58L15.30-46.58L15.30-17.85L41.48-17.85Q42.23-17.85 42.72-18.34Q43.21-18.83 43.21-19.58L43.21-19.58Z" transform="translate(120.016 289.46359000000007) " fill="rgb(49, 49, 49)" stroke="rgb(49, 49, 49)" stroke-width="0.125" data-glyph-w="60.008" data-glyph-h="78.53547" data-glyph-ascender="64.43359000000001" data-glyph-descender="-14.101880000000001"></path><path d="M4.35 2.85L4.35-47.86Q4.35-49.81 5.66-51.16Q6.98-52.51 8.93-52.51L8.93-52.51L51.23-52.51Q53.18-52.51 54.49-51.16Q55.81-49.81 55.81-47.86L55.81-47.86L55.81 2.85Q55.81 4.80 54.49 6.15Q53.18 7.50 51.23 7.50L51.23 7.50L8.93 7.50Q6.98 7.50 5.66 6.15Q4.35 4.80 4.35 2.85L4.35 2.85ZM16.05-46.51L16.05 1.50Q16.05 2.25 16.54 2.78Q17.03 3.30 17.70 3.30L17.70 3.30L42.38 3.30Q43.13 3.30 43.62 2.78Q44.11 2.25 44.11 1.50L44.11 1.50L44.11-46.51Q44.11-47.26 43.62-47.78Q43.13-48.31 42.38-48.31L42.38-48.31L17.70-48.31Q17.03-48.31 16.54-47.78Q16.05-47.26 16.05-46.51L16.05-46.51Z" transform="translate(180.024 289.46359000000007) " fill="rgb(49, 49, 49)" stroke="rgb(49, 49, 49)" stroke-width="0.125" data-glyph-w="60.008" data-glyph-h="78.53547" data-glyph-ascender="64.43359000000001" data-glyph-descender="-14.101880000000001"></path><path d="M43.51 7.50L25.65-21.90L15.75-10.65L15.75 7.43L4.28 7.43L4.28-52.51L15.75-52.51L15.75-19.28L45.16-52.66L52.58-52.66L32.70-29.93L56.18 7.50L43.51 7.50Z" transform="translate(240.032 289.46359000000007) " fill="rgb(49, 49, 49)" stroke="rgb(49, 49, 49)" stroke-width="0.125" data-glyph-w="60.008" data-glyph-h="78.53547" data-glyph-ascender="64.43359000000001" data-glyph-descender="-14.101880000000001"></path><path d="M4.35 2.85L4.35-47.86Q4.35-49.81 5.66-51.16Q6.98-52.51 8.93-52.51L8.93-52.51L51.23-52.51Q53.18-52.51 54.49-51.16Q55.81-49.81 55.81-47.86L55.81-47.86L55.81 2.85Q55.81 4.80 54.49 6.15Q53.18 7.50 51.23 7.50L51.23 7.50L8.93 7.50Q6.98 7.50 5.66 6.15Q4.35 4.80 4.35 2.85L4.35 2.85ZM16.05-46.51L16.05 1.50Q16.05 2.25 16.54 2.78Q17.03 3.30 17.70 3.30L17.70 3.30L42.38 3.30Q43.13 3.30 43.62 2.78Q44.11 2.25 44.11 1.50L44.11 1.50L44.11-46.51Q44.11-47.26 43.62-47.78Q43.13-48.31 42.38-48.31L42.38-48.31L17.70-48.31Q17.03-48.31 16.54-47.78Q16.05-47.26 16.05-46.51L16.05-46.51Z" transform="translate(300.04 289.46359000000007) " fill="rgb(49, 49, 49)" stroke="rgb(49, 49, 49)" stroke-width="0.125" data-glyph-w="60.008" data-glyph-h="78.53547" data-glyph-ascender="64.43359000000001" data-glyph-descender="-14.101880000000001"></path></g></svg></g>
        </g>
  </svg>